# xmcd
#
# Track frame offsets:
#	150
#	2925
#	19791
#	36889
#	52456
#	70055
#	73131
#	91818
#	108117
#	122489
#	138780
#	158793
#	173889
#	192569
#	215430
#
# Disc length: 3097 seconds
#
# Revision: 3
# Processed by: cddbd v1.5.2PL0 Copyright (c) Steve Scherf et al.
# Submitted via: EasyCDDAExtractor 2010.4.0.0
#
DISCID=d20c170f
DTITLE=김범수 - 김범수 6집
DYEAR=2008
DGENRE=Ballad
TTITLE0=Intro (725 days)
TTITLE1=슬픔활용법
TTITLE2=Smile again
TTITLE3=줄다리기 (with 윤하)
TTITLE4=사랑아
TTITLE5=Interlude (시간이 남겨 놓은 이야기...)
TTITLE6=굳은살
TTITLE7=Do you know that? (featuring 원더걸스 유빈)
TTITLE8=쉬운 이별 (featuring 주석)
TTITLE9=마지막까지
TTITLE10=Without your love
TTITLE11=님아 (SGT. Kim)
TTITLE12=빛
TTITLE13=은혜로
TTITLE14=슬픔활용법 (MR)
EXTD=
EXTT0=
EXTT1=
EXTT2=
EXTT3=
EXTT4=
EXTT5=
EXTT6=
EXTT7=
EXTT8=
EXTT9=
EXTT10=
EXTT11=
EXTT12=
EXTT13=
EXTT14=
PLAYORDER=
